# xmcd
#
# Track frame offsets:
#	150
#	12502
#	24731
#	36331
#	50683
#	59945
#	69052
#	79960
#	89687
#	101246
#	115754
#	129753
#
# Disc length: 1889
#
# Revision: 2
# Processed by: cddbd v1.5.1PL0 Copyright (c) Steve Scherf et al.
# Submitted via: audiograbber 1.83.01
# Normalized: r1:DSETVAR1
#
DISCID=a9075f0c
DTITLE=Various Artist - legendary country
DYEAR=2003
DGENRE=Country
TTITLE0=willie nelson - shelter of my arms
TTITLE1=glen campbell - by the time i get to phoenix
TTITLE2=kitty wells - makin' believe
TTITLE3=jim reeves - highway to nowhere
TTITLE4=conway twitty - this road that i walk
TTITLE5=patsy cline - i love you honey
TTITLE6=george jones - accidentally on purpose
TTITLE7=jimmy dean - freight train blues
TTITLE8=roy clark - the most beautiful girl (in the world)
TTITLE9=dottie west - my big john
TTITLE10=bill anderson - the unicorn
TTITLE11=hank thompson - i've got a humpty dumpty heart
EXTD=
EXTT0=
EXTT1=
EXTT2=
EXTT3=
EXTT4=
EXTT5=
EXTT6=
EXTT7=
EXTT8=
EXTT9=
EXTT10=
EXTT11=
PLAYORDER=
